<svg xmlns="http://www.w3.org/2000/svg" xmlns:xlink="http://www.w3.org/1999/xlink" width="500" zoomAndPan="magnify" viewBox="0 0 375 374.999991" height="500" preserveAspectRatio="xMidYMid meet" version="1.0"><defs><g/><clipPath id="071cb2fe7a"><path d="M 222.460938 122.242188 L 358.988281 122.242188 L 358.988281 258.773438 L 222.460938 258.773438 Z M 222.460938 122.242188 " clip-rule="nonzero"/></clipPath></defs><g fill="#000000" fill-opacity="1"><g transform="translate(15.913694, 192.147616)"><g><path d="M 28.8125 0 L 7.5625 0 L 7.5625 -67.90625 L 27.359375 -67.90625 C 32.722656 -67.90625 37.179688 -66.414062 40.734375 -63.4375 C 44.296875 -60.457031 46.078125 -56.222656 46.078125 -50.734375 C 46.078125 -44.648438 43.941406 -40.15625 39.671875 -37.25 C 39.609375 -37.1875 39.578125 -37.117188 39.578125 -37.046875 L 39.578125 -36.953125 C 42.421875 -35.660156 44.796875 -33.59375 46.703125 -30.75 C 48.609375 -27.90625 49.5625 -24.285156 49.5625 -19.890625 C 49.5625 -17.429688 49.207031 -15.082031 48.5 -12.84375 C 47.789062 -10.613281 46.660156 -8.515625 45.109375 -6.546875 C 43.554688 -4.578125 41.390625 -2.992188 38.609375 -1.796875 C 35.828125 -0.597656 32.5625 0 28.8125 0 Z M 18.234375 -40.0625 L 22.890625 -40.0625 C 26.578125 -40.0625 29.289062 -40.738281 31.03125 -42.09375 C 32.78125 -43.457031 33.65625 -45.785156 33.65625 -49.078125 C 33.65625 -52.117188 32.847656 -54.238281 31.234375 -55.4375 C 29.617188 -56.632812 27.160156 -57.234375 23.859375 -57.234375 L 18.234375 -57.234375 Z M 18.234375 -9.796875 L 24.15625 -9.796875 C 28.613281 -9.796875 31.925781 -10.457031 34.09375 -11.78125 C 36.257812 -13.113281 37.34375 -15.878906 37.34375 -20.078125 C 37.34375 -26.546875 33.238281 -29.78125 25.03125 -29.78125 L 18.234375 -29.78125 Z M 18.234375 -9.796875 "/></g></g></g><g fill="#000000" fill-opacity="1"><g transform="translate(69.266479, 192.147616)"><g><path d="M 33.171875 1.84375 L 29.78125 -6.3125 C 31.914062 -6.5625 33.660156 -7.363281 35.015625 -8.71875 C 36.367188 -10.082031 37.046875 -12.476562 37.046875 -15.90625 L 37.046875 -21.34375 C 33.816406 -19.726562 30.425781 -18.921875 26.875 -18.921875 C 20.207031 -18.921875 14.835938 -20.828125 10.765625 -24.640625 C 6.691406 -28.453125 4.65625 -33.59375 4.65625 -40.0625 L 4.65625 -67.90625 L 15.328125 -67.90625 L 15.328125 -41.03125 C 15.328125 -33.269531 19.175781 -29.390625 26.875 -29.390625 C 27.644531 -29.390625 28.367188 -29.421875 29.046875 -29.484375 C 29.722656 -29.546875 30.335938 -29.640625 30.890625 -29.765625 C 31.441406 -29.898438 31.941406 -30.03125 32.390625 -30.15625 C 32.847656 -30.289062 33.285156 -30.472656 33.703125 -30.703125 C 34.128906 -30.929688 34.46875 -31.109375 34.71875 -31.234375 C 34.976562 -31.359375 35.253906 -31.550781 35.546875 -31.8125 C 35.835938 -32.070312 36.046875 -32.265625 36.171875 -32.390625 C 36.304688 -32.523438 36.472656 -32.722656 36.671875 -32.984375 L 37.046875 -33.265625 L 37.046875 -67.90625 L 47.71875 -67.90625 L 47.71875 -15.125 C 47.71875 -10.019531 46.617188 -6.046875 44.421875 -3.203125 C 42.222656 -0.359375 38.472656 1.320312 33.171875 1.84375 Z M 33.171875 1.84375 "/></g></g></g><g fill="#000000" fill-opacity="1"><g transform="translate(122.425254, 192.147616)"><g><path d="M 24.640625 0 L 13.96875 0 L 13.96875 -57.140625 L 0 -57.140625 L 0 -67.90625 L 39 -67.90625 L 39 -57.140625 L 24.640625 -57.140625 Z M 24.640625 0 "/></g></g></g><g fill="#000000" fill-opacity="1"><g transform="translate(161.421289, 192.147616)"><g><path d="M 39.765625 0 L 7.5625 0 L 7.5625 -67.90625 L 39.96875 -67.90625 L 39.96875 -57.234375 L 18.234375 -57.234375 L 18.234375 -40.0625 L 31.53125 -40.0625 L 28.515625 -29.875 L 18.234375 -29.875 L 18.234375 -9.703125 L 39.765625 -9.703125 Z M 39.765625 0 "/></g></g></g><g clip-path="url(#071cb2fe7a)"><path fill="#00bf63" d="M 343.785156 137.535156 L 343.785156 196.160156 C 343.78125 197.710938 343.707031 199.261719 343.550781 200.804688 C 343.398438 202.351562 343.167969 203.882812 342.863281 205.40625 C 342.5625 206.929688 342.183594 208.429688 341.730469 209.917969 C 341.28125 211.402344 340.757812 212.859375 340.160156 214.292969 C 339.566406 215.730469 338.902344 217.128906 338.171875 218.5 C 337.4375 219.867188 336.640625 221.195312 335.777344 222.488281 C 334.914062 223.777344 333.992188 225.023438 333.007812 226.222656 C 332.023438 227.421875 330.980469 228.570312 329.882812 229.667969 C 328.785156 230.765625 327.636719 231.808594 326.4375 232.792969 C 325.238281 233.777344 323.992188 234.699219 322.703125 235.5625 C 321.410156 236.425781 320.082031 237.222656 318.714844 237.957031 C 317.34375 238.6875 315.945312 239.351562 314.511719 239.945312 C 313.078125 240.542969 311.617188 241.0625 310.132812 241.515625 C 308.648438 241.96875 307.144531 242.34375 305.621094 242.648438 C 304.097656 242.953125 302.566406 243.183594 301.019531 243.335938 C 299.476562 243.488281 297.929688 243.566406 296.375 243.570312 L 237.753906 243.570312 L 237.753906 137.535156 L 343.785156 137.535156 M 359.078125 122.242188 L 222.460938 122.242188 L 222.460938 258.863281 L 296.375 258.863281 C 298.429688 258.863281 300.476562 258.761719 302.523438 258.5625 C 304.566406 258.359375 306.59375 258.058594 308.609375 257.65625 C 310.621094 257.257812 312.613281 256.757812 314.578125 256.164062 C 316.542969 255.566406 318.472656 254.875 320.371094 254.089844 C 322.269531 253.304688 324.121094 252.425781 325.933594 251.457031 C 327.746094 250.492188 329.503906 249.4375 331.210938 248.296875 C 332.917969 247.15625 334.566406 245.933594 336.152344 244.628906 C 337.742188 243.328125 339.261719 241.949219 340.714844 240.496094 C 342.164062 239.046875 343.542969 237.527344 344.84375 235.9375 C 346.148438 234.351562 347.371094 232.703125 348.511719 230.996094 C 349.652344 229.289062 350.707031 227.527344 351.675781 225.71875 C 352.640625 223.90625 353.519531 222.054688 354.304688 220.15625 C 355.089844 218.257812 355.78125 216.328125 356.378906 214.363281 C 356.972656 212.398438 357.472656 210.40625 357.875 208.394531 C 358.273438 206.378906 358.574219 204.351562 358.777344 202.304688 C 358.976562 200.261719 359.078125 198.214844 359.078125 196.160156 Z M 359.078125 122.242188 " fill-opacity="1" fill-rule="nonzero"/></g><g fill="#000000" fill-opacity="1"><g transform="translate(73.047305, 257.795956)"><g><path d="M 14.671875 -39 C 18.765625 -39 21.882812 -38.160156 24.03125 -36.484375 C 26.175781 -34.804688 27.25 -32.523438 27.25 -29.640625 L 27.25 -28.359375 C 27.25 -24.265625 25.457031 -21.4375 21.875 -19.875 C 24.050781 -19.40625 25.753906 -18.398438 26.984375 -16.859375 C 28.210938 -15.328125 28.828125 -13.429688 28.828125 -11.171875 L 28.828125 -9.875 C 28.828125 -6.644531 27.6875 -4.070312 25.40625 -2.15625 C 23.125 -0.25 19.679688 0.703125 15.078125 0.703125 C 12.472656 0.703125 8.910156 0.582031 4.390625 0.34375 L 4.390625 -38.765625 C 7.972656 -38.921875 11.398438 -39 14.671875 -39 Z M 13.921875 -34.734375 C 12.515625 -34.734375 10.992188 -34.675781 9.359375 -34.5625 L 9.359375 -21.453125 L 15.078125 -21.453125 C 17.421875 -21.453125 19.207031 -22.015625 20.4375 -23.140625 C 21.664062 -24.273438 22.28125 -25.859375 22.28125 -27.890625 L 22.28125 -28.890625 C 22.28125 -30.835938 21.613281 -32.296875 20.28125 -33.265625 C 18.957031 -34.242188 16.835938 -34.734375 13.921875 -34.734375 Z M 9.359375 -17.421875 L 9.359375 -3.96875 C 10.640625 -3.851562 11.695312 -3.765625 12.53125 -3.703125 C 13.375 -3.648438 14.222656 -3.625 15.078125 -3.625 C 18.085938 -3.625 20.300781 -4.195312 21.71875 -5.34375 C 23.144531 -6.5 23.859375 -8.109375 23.859375 -10.171875 L 23.859375 -11.40625 C 23.859375 -15.414062 21.050781 -17.421875 15.4375 -17.421875 Z M 9.359375 -17.421875 "/></g></g></g><g fill="#000000" fill-opacity="1"><g transform="translate(106.838532, 257.795956)"><g><path d="M 9.0625 -39.9375 L 9.0625 0 L 4.09375 0 L 4.09375 -39.9375 Z M 9.0625 -39.9375 "/></g></g></g><g fill="#000000" fill-opacity="1"><g transform="translate(122.915922, 257.795956)"><g><path d="M 13.796875 -29.234375 C 17.265625 -29.234375 19.847656 -28.304688 21.546875 -26.453125 C 23.242188 -24.609375 24.09375 -21.988281 24.09375 -18.59375 L 24.09375 -9.9375 C 24.09375 -6.550781 23.242188 -3.929688 21.546875 -2.078125 C 19.847656 -0.222656 17.265625 0.703125 13.796875 0.703125 C 10.328125 0.703125 7.742188 -0.222656 6.046875 -2.078125 C 4.359375 -3.929688 3.515625 -6.550781 3.515625 -9.9375 L 3.515625 -18.59375 C 3.515625 -21.988281 4.359375 -24.609375 6.046875 -26.453125 C 7.742188 -28.304688 10.328125 -29.234375 13.796875 -29.234375 Z M 13.796875 -25.078125 C 12.117188 -25.078125 10.8125 -24.550781 9.875 -23.5 C 8.945312 -22.445312 8.484375 -20.945312 8.484375 -19 L 8.484375 -9.53125 C 8.484375 -7.582031 8.945312 -6.082031 9.875 -5.03125 C 10.8125 -3.976562 12.117188 -3.453125 13.796875 -3.453125 C 15.472656 -3.453125 16.78125 -3.976562 17.71875 -5.03125 C 18.65625 -6.082031 19.125 -7.582031 19.125 -9.53125 L 19.125 -19.0625 C 19.125 -21.007812 18.65625 -22.5 17.71875 -23.53125 C 16.78125 -24.5625 15.472656 -25.078125 13.796875 -25.078125 Z M 13.796875 -25.078125 "/></g></g></g><g fill="#000000" fill-opacity="1"><g transform="translate(153.433295, 257.795956)"><g><path d="M 13.453125 -29.234375 C 15.160156 -29.234375 16.71875 -28.976562 18.125 -28.46875 L 27.25 -28.59375 L 27.25 -24.203125 L 22.453125 -24.328125 C 23.117188 -22.921875 23.453125 -21.457031 23.453125 -19.9375 L 23.453125 -18.65625 C 23.453125 -15.8125 22.570312 -13.519531 20.8125 -11.78125 C 19.0625 -10.039062 16.609375 -9.171875 13.453125 -9.171875 C 11.421875 -9.171875 9.765625 -9.367188 8.484375 -9.765625 C 7.617188 -9.066406 7.1875 -8.265625 7.1875 -7.359375 L 7.1875 -7.015625 C 7.1875 -6.390625 7.378906 -5.929688 7.765625 -5.640625 C 8.160156 -5.347656 8.925781 -5.164062 10.0625 -5.09375 L 18.765625 -4.4375 C 20.554688 -4.28125 22.007812 -3.609375 23.125 -2.421875 C 24.238281 -1.234375 24.796875 0.253906 24.796875 2.046875 L 24.796875 4.203125 C 24.796875 5.878906 24.460938 7.242188 23.796875 8.296875 C 23.128906 9.347656 21.910156 10.144531 20.140625 10.6875 C 18.367188 11.238281 15.828125 11.515625 12.515625 11.515625 C 11.265625 11.515625 9.789062 11.378906 8.09375 11.109375 C 6.394531 10.835938 4.789062 10.488281 3.28125 10.0625 L 3.453125 5.4375 C 7.078125 6.644531 10.15625 7.25 12.6875 7.25 C 14.789062 7.25 16.359375 7.117188 17.390625 6.859375 C 18.421875 6.609375 19.101562 6.226562 19.4375 5.71875 C 19.769531 5.21875 19.9375 4.460938 19.9375 3.453125 L 19.9375 2.984375 C 19.9375 2.085938 19.691406 1.382812 19.203125 0.875 C 18.710938 0.363281 18.019531 0.09375 17.125 0.0625 L 8.359375 -0.53125 C 6.484375 -0.644531 5.054688 -1.171875 4.078125 -2.109375 C 3.109375 -3.046875 2.625 -4.3125 2.625 -5.90625 L 2.625 -7.078125 C 2.625 -7.929688 2.847656 -8.765625 3.296875 -9.578125 C 3.742188 -10.398438 4.398438 -11.125 5.265625 -11.75 C 4.597656 -12.488281 4.117188 -13.429688 3.828125 -14.578125 C 3.535156 -15.734375 3.390625 -17.148438 3.390625 -18.828125 L 3.390625 -20.109375 C 3.390625 -22.878906 4.242188 -25.09375 5.953125 -26.75 C 7.671875 -28.40625 10.171875 -29.234375 13.453125 -29.234375 Z M 13.453125 -25.078125 C 11.804688 -25.078125 10.546875 -24.65625 9.671875 -23.8125 C 8.796875 -22.976562 8.359375 -21.785156 8.359375 -20.234375 L 8.359375 -18.296875 C 8.359375 -16.859375 8.484375 -15.796875 8.734375 -15.109375 C 8.992188 -14.429688 9.453125 -13.960938 10.109375 -13.703125 C 10.773438 -13.453125 11.769531 -13.328125 13.09375 -13.328125 C 14.882812 -13.328125 16.226562 -13.753906 17.125 -14.609375 C 18.019531 -15.472656 18.46875 -16.703125 18.46875 -18.296875 L 18.46875 -20.0625 C 18.46875 -21.695312 18.238281 -23.117188 17.78125 -24.328125 C 17.3125 -24.515625 16.675781 -24.6875 15.875 -24.84375 C 15.070312 -25 14.265625 -25.078125 13.453125 -25.078125 Z M 13.453125 -25.078125 "/></g></g></g><g fill="#000000" fill-opacity="1"><g transform="translate(184.184524, 257.795956)"><g><path d="M 12.28125 -29.234375 C 13.914062 -29.234375 15.882812 -29 18.1875 -28.53125 L 18.0625 -24.328125 C 16.039062 -24.796875 14.191406 -25.03125 12.515625 -25.03125 C 9.003906 -25.03125 7.25 -23.898438 7.25 -21.640625 L 7.25 -21.109375 C 7.25 -20.410156 7.429688 -19.84375 7.796875 -19.40625 C 8.171875 -18.976562 8.847656 -18.53125 9.828125 -18.0625 L 15.3125 -15.5 C 18.625 -13.9375 20.28125 -11.65625 20.28125 -8.65625 L 20.28125 -7.359375 C 20.25 -4.671875 19.441406 -2.65625 17.859375 -1.3125 C 16.285156 0.03125 13.800781 0.703125 10.40625 0.703125 C 8.65625 0.703125 6.140625 0.289062 2.859375 -0.53125 L 3.09375 -4.96875 C 6.019531 -4.113281 8.421875 -3.6875 10.296875 -3.6875 C 12.203125 -3.6875 13.523438 -3.945312 14.265625 -4.46875 C 15.003906 -5 15.375 -5.867188 15.375 -7.078125 L 15.375 -7.65625 C 15.375 -8.59375 15.1875 -9.332031 14.8125 -9.875 C 14.445312 -10.425781 13.835938 -10.894531 12.984375 -11.28125 L 7.3125 -13.796875 C 5.59375 -14.578125 4.332031 -15.515625 3.53125 -16.609375 C 2.738281 -17.703125 2.34375 -18.96875 2.34375 -20.40625 L 2.34375 -21.21875 C 2.414062 -23.875 3.238281 -25.875 4.8125 -27.21875 C 6.394531 -28.5625 8.882812 -29.234375 12.28125 -29.234375 Z M 12.28125 -29.234375 "/></g></g></g></svg>